# xmcd
#
# Track frame offsets: 
#        150
#        22135
#        45860
#        84280
#        118862
#        147330
#        166607
#        191615
#
# Disc length: 3034 seconds
#
# Revision: 6
# Processed by: cddbd v1.5.2PL0 Copyright (c) Steve Scherf et al.
# Submitted via: ExactAudioCopy v0.95b4
#
DISCID=5e0bd808
DTITLE=Nikolaus Harnoncourt and Concentus Musicus Wien - Biber - Sacred 
DTITLE=Works [CD2)
DYEAR=1971
DGENRE=Classical
TTITLE0=Sonata III a 5
TTITLE1=Sonata prima a 8
TTITLE2=Ballettae a 4 Violettae, Nos.1~7
TTITLE3=Battalia
TTITLE4=Sonata a 7
TTITLE5=Sonata IV a
TTITLE6=Sonata seconda a 8
TTITLE7=Sonata a 6 "die Pauern Kirchfahrt genandt"
EXTD=YEAR: 1971
EXTT0=
EXTT1=
EXTT2=
EXTT3=
EXTT4=
EXTT5=
EXTT6=
EXTT7=
PLAYORDER=
